<?xml version="1.0" encoding="UTF-8" standalone="no"?>
<!DOCTYPE svg PUBLIC "-//W3C//DTD SVG 1.1//EN"
 "http://www.w3.org/Graphics/SVG/1.1/DTD/svg11.dtd">
<!-- Generated by graphviz version 2.43.0 (0)
 -->
<!-- Title: Tree Pages: 1 -->
<svg width="595pt" height="314pt"
 viewBox="0.00 0.00 595.00 314.00" xmlns="http://www.w3.org/2000/svg" xmlns:xlink="http://www.w3.org/1999/xlink">
<g id="graph0" class="graph" transform="scale(1 1) rotate(0) translate(4 310)">
<title>Tree</title>
<polygon fill="white" stroke="transparent" points="-4,4 -4,-310 591,-310 591,4 -4,4"/>
<!-- 0 -->
<g id="node1" class="node">
<title>0</title>
<path fill="#e89153" stroke="black" d="M357.5,-306C357.5,-306 217.5,-306 217.5,-306 211.5,-306 205.5,-300 205.5,-294 205.5,-294 205.5,-235 205.5,-235 205.5,-229 211.5,-223 217.5,-223 217.5,-223 357.5,-223 357.5,-223 363.5,-223 369.5,-229 369.5,-235 369.5,-235 369.5,-294 369.5,-294 369.5,-300 363.5,-306 357.5,-306"/>
<text text-anchor="middle" x="287.5" y="-290.8" font-family="Helvetica,sans-Serif" font-size="14.00">cons.price.idx &lt;= 92.868</text>
<text text-anchor="middle" x="287.5" y="-275.8" font-family="Helvetica,sans-Serif" font-size="14.00">gini = 0.204</text>
<text text-anchor="middle" x="287.5" y="-260.8" font-family="Helvetica,sans-Serif" font-size="14.00">samples = 20772</text>
<text text-anchor="middle" x="287.5" y="-245.8" font-family="Helvetica,sans-Serif" font-size="14.00">value = [29150, 3800]</text>
<text text-anchor="middle" x="287.5" y="-230.8" font-family="Helvetica,sans-Serif" font-size="14.00">class = 0</text>
</g>
<!-- 1 -->
<g id="node2" class="node">
<title>1</title>
<path fill="#f7d7bf" stroke="black" d="M266,-187C266,-187 133,-187 133,-187 127,-187 121,-181 121,-175 121,-175 121,-116 121,-116 121,-110 127,-104 133,-104 133,-104 266,-104 266,-104 272,-104 278,-110 278,-116 278,-116 278,-175 278,-175 278,-181 272,-187 266,-187"/>
<text text-anchor="middle" x="199.5" y="-171.8" font-family="Helvetica,sans-Serif" font-size="14.00">cons.price.idx &lt;= 92.29</text>
<text text-anchor="middle" x="199.5" y="-156.8" font-family="Helvetica,sans-Serif" font-size="14.00">gini = 0.482</text>
<text text-anchor="middle" x="199.5" y="-141.8" font-family="Helvetica,sans-Serif" font-size="14.00">samples = 1231</text>
<text text-anchor="middle" x="199.5" y="-126.8" font-family="Helvetica,sans-Serif" font-size="14.00">value = [1163, 790]</text>
<text text-anchor="middle" x="199.5" y="-111.8" font-family="Helvetica,sans-Serif" font-size="14.00">class = 0</text>
</g>
<!-- 0&#45;&gt;1 -->
<g id="edge1" class="edge">
<title>0&#45;&gt;1</title>
<path fill="none" stroke="black" d="M256.97,-222.91C250.21,-213.92 242.98,-204.32 236.02,-195.05"/>
<polygon fill="black" stroke="black" points="238.79,-192.91 229.98,-187.02 233.19,-197.12 238.79,-192.91"/>
<text text-anchor="middle" x="226.48" y="-208.07" font-family="Helvetica,sans-Serif" font-size="14.00">True</text>
</g>
<!-- 4 -->
<g id="node5" class="node">
<title>4</title>
<path fill="#e88f4e" stroke="black" d="M442.5,-187C442.5,-187 308.5,-187 308.5,-187 302.5,-187 296.5,-181 296.5,-175 296.5,-175 296.5,-116 296.5,-116 296.5,-110 302.5,-104 308.5,-104 308.5,-104 442.5,-104 442.5,-104 448.5,-104 454.5,-110 454.5,-116 454.5,-116 454.5,-175 454.5,-175 454.5,-181 448.5,-187 442.5,-187"/>
<text text-anchor="middle" x="375.5" y="-171.8" font-family="Helvetica,sans-Serif" font-size="14.00">cons.conf.idx &lt;= &#45;35.45</text>
<text text-anchor="middle" x="375.5" y="-156.8" font-family="Helvetica,sans-Serif" font-size="14.00">gini = 0.175</text>
<text text-anchor="middle" x="375.5" y="-141.8" font-family="Helvetica,sans-Serif" font-size="14.00">samples = 19541</text>
<text text-anchor="middle" x="375.5" y="-126.8" font-family="Helvetica,sans-Serif" font-size="14.00">value = [27987, 3010]</text>
<text text-anchor="middle" x="375.5" y="-111.8" font-family="Helvetica,sans-Serif" font-size="14.00">class = 0</text>
</g>
<!-- 0&#45;&gt;4 -->
<g id="edge4" class="edge">
<title>0&#45;&gt;4</title>
<path fill="none" stroke="black" d="M318.03,-222.91C324.79,-213.92 332.02,-204.32 338.98,-195.05"/>
<polygon fill="black" stroke="black" points="341.81,-197.12 345.02,-187.02 336.21,-192.91 341.81,-197.12"/>
<text text-anchor="middle" x="348.52" y="-208.07" font-family="Helvetica,sans-Serif" font-size="14.00">False</text>
</g>
<!-- 2 -->
<g id="node3" class="node">
<title>2</title>
<path fill="#f4c8a8" stroke="black" d="M113,-68C113,-68 12,-68 12,-68 6,-68 0,-62 0,-56 0,-56 0,-12 0,-12 0,-6 6,0 12,0 12,0 113,0 113,0 119,0 125,-6 125,-12 125,-12 125,-56 125,-56 125,-62 119,-68 113,-68"/>
<text text-anchor="middle" x="62.5" y="-52.8" font-family="Helvetica,sans-Serif" font-size="14.00">gini = 0.46</text>
<text text-anchor="middle" x="62.5" y="-37.8" font-family="Helvetica,sans-Serif" font-size="14.00">samples = 384</text>
<text text-anchor="middle" x="62.5" y="-22.8" font-family="Helvetica,sans-Serif" font-size="14.00">value = [403, 226]</text>
<text text-anchor="middle" x="62.5" y="-7.8" font-family="Helvetica,sans-Serif" font-size="14.00">class = 0</text>
</g>
<!-- 1&#45;&gt;2 -->
<g id="edge2" class="edge">
<title>1&#45;&gt;2</title>
<path fill="none" stroke="black" d="M148.49,-103.73C136.62,-94.24 124,-84.16 112.19,-74.72"/>
<polygon fill="black" stroke="black" points="114.16,-71.81 104.16,-68.3 109.79,-77.28 114.16,-71.81"/>
</g>
<!-- 3 -->
<g id="node4" class="node">
<title>3</title>
<path fill="#f8dfcc" stroke="black" d="M256,-68C256,-68 155,-68 155,-68 149,-68 143,-62 143,-56 143,-56 143,-12 143,-12 143,-6 149,0 155,0 155,0 256,0 256,0 262,0 268,-6 268,-12 268,-12 268,-56 268,-56 268,-62 262,-68 256,-68"/>
<text text-anchor="middle" x="205.5" y="-52.8" font-family="Helvetica,sans-Serif" font-size="14.00">gini = 0.489</text>
<text text-anchor="middle" x="205.5" y="-37.8" font-family="Helvetica,sans-Serif" font-size="14.00">samples = 847</text>
<text text-anchor="middle" x="205.5" y="-22.8" font-family="Helvetica,sans-Serif" font-size="14.00">value = [760, 564]</text>
<text text-anchor="middle" x="205.5" y="-7.8" font-family="Helvetica,sans-Serif" font-size="14.00">class = 0</text>
</g>
<!-- 1&#45;&gt;3 -->
<g id="edge3" class="edge">
<title>1&#45;&gt;3</title>
<path fill="none" stroke="black" d="M201.73,-103.73C202.18,-95.52 202.66,-86.86 203.11,-78.56"/>
<polygon fill="black" stroke="black" points="206.62,-78.48 203.68,-68.3 199.63,-78.09 206.62,-78.48"/>
</g>
<!-- 5 -->
<g id="node6" class="node">
<title>5</title>
<path fill="#e88e4d" stroke="black" d="M432,-68C432,-68 309,-68 309,-68 303,-68 297,-62 297,-56 297,-56 297,-12 297,-12 297,-6 303,0 309,0 309,0 432,0 432,0 438,0 444,-6 444,-12 444,-12 444,-56 444,-56 444,-62 438,-68 432,-68"/>
<text text-anchor="middle" x="370.5" y="-52.8" font-family="Helvetica,sans-Serif" font-size="14.00">gini = 0.166</text>
<text text-anchor="middle" x="370.5" y="-37.8" font-family="Helvetica,sans-Serif" font-size="14.00">samples = 19314</text>
<text text-anchor="middle" x="370.5" y="-22.8" font-family="Helvetica,sans-Serif" font-size="14.00">value = [27840, 2808]</text>
<text text-anchor="middle" x="370.5" y="-7.8" font-family="Helvetica,sans-Serif" font-size="14.00">class = 0</text>
</g>
<!-- 4&#45;&gt;5 -->
<g id="edge5" class="edge">
<title>4&#45;&gt;5</title>
<path fill="none" stroke="black" d="M373.64,-103.73C373.26,-95.52 372.87,-86.86 372.49,-78.56"/>
<polygon fill="black" stroke="black" points="375.97,-78.13 372.02,-68.3 368.98,-78.45 375.97,-78.13"/>
</g>
<!-- 6 -->
<g id="node7" class="node">
<title>6</title>
<path fill="#c9e4f8" stroke="black" d="M575,-68C575,-68 474,-68 474,-68 468,-68 462,-62 462,-56 462,-56 462,-12 462,-12 462,-6 468,0 474,0 474,0 575,0 575,0 581,0 587,-6 587,-12 587,-12 587,-56 587,-56 587,-62 581,-68 575,-68"/>
<text text-anchor="middle" x="524.5" y="-52.8" font-family="Helvetica,sans-Serif" font-size="14.00">gini = 0.488</text>
<text text-anchor="middle" x="524.5" y="-37.8" font-family="Helvetica,sans-Serif" font-size="14.00">samples = 227</text>
<text text-anchor="middle" x="524.5" y="-22.8" font-family="Helvetica,sans-Serif" font-size="14.00">value = [147, 202]</text>
<text text-anchor="middle" x="524.5" y="-7.8" font-family="Helvetica,sans-Serif" font-size="14.00">class = 1</text>
</g>
<!-- 4&#45;&gt;6 -->
<g id="edge6" class="edge">
<title>4&#45;&gt;6</title>
<path fill="none" stroke="black" d="M430.98,-103.73C444.01,-94.15 457.88,-83.96 470.83,-74.44"/>
<polygon fill="black" stroke="black" points="473.2,-77.04 479.19,-68.3 469.06,-71.4 473.2,-77.04"/>
</g>
</g>
</svg>
